<?xml version="1.0" encoding="iso-8859-1"?>
<!-- Generator: Adobe Illustrator 16.0.0, SVG Export Plug-In . SVG Version: 6.00 Build 0)  -->
<!DOCTYPE svg PUBLIC "-//W3C//DTD SVG 1.1//EN" "http://www.w3.org/Graphics/SVG/1.1/DTD/svg11.dtd">
<svg version="1.1" id="Capa_1" xmlns="http://www.w3.org/2000/svg" xmlns:xlink="http://www.w3.org/1999/xlink" x="0px"
     y="0px"
     width="374.845px" height="374.845px" viewBox="0 0 374.845 374.845"
     style="enable-background:new 0 0 374.845 374.845;"
     xml:space="preserve">
<g>
	<g>
		<path fill="#fff" d="M48.697,267.324c-4.168-6.754-12.875-9.094-19.869-5.334l-5.83,3.134c-3.635,1.955-6.305,5.319-7.379,9.305
			c-1.076,3.984-0.461,8.236,1.697,11.753c8.299,13.52,18.293,25.941,29.709,36.922c2.803,2.693,6.531,4.188,10.398,4.188
			c0.242,0,0.482-0.007,0.725-0.019c4.123-0.199,7.982-2.088,10.668-5.223l4.307-5.027c5.164-6.026,4.74-15.033-0.967-20.547
			C63.167,287.791,55.274,277.982,48.697,267.324z"/>
        <path fill="#fff" d="M166.035,338.261c-12.504-0.905-24.873-3.345-36.768-7.253c-7.531-2.473-15.684,1.335-18.617,8.696l-2.453,6.153
			c-1.529,3.839-1.408,8.137,0.334,11.883c1.742,3.746,4.953,6.605,8.873,7.907c8.094,2.687,16.453,4.844,24.848,6.409
			c7.113,1.327,14.377,2.253,21.592,2.752c0.348,0.024,0.693,0.036,1.037,0.036c3.758,0,7.395-1.412,10.174-3.979
			c3.035-2.802,4.781-6.73,4.824-10.86l0.072-6.624C180.035,345.458,173.94,338.834,166.035,338.261z"/>
        <path fill="#fff" d="M285.153,312.594c-5.039-6.134-13.984-7.277-20.404-2.613c-10.135,7.36-21.16,13.435-32.772,18.053
			c-7.373,2.933-11.188,11.1-8.701,18.636l2.071,6.287c1.293,3.92,4.146,7.135,7.884,8.886c2.012,0.942,4.186,1.416,6.36,1.416
			c1.867,0,3.738-0.349,5.512-1.049c14.73-5.818,28.695-13.51,41.508-22.863c3.332-2.434,5.517-6.133,6.037-10.227
			s-0.672-8.223-3.291-11.41L285.153,312.594z"/>
        <path fill="#fff" d="M346.147,214.607l-6.508-1.213c-7.819-1.455-15.414,3.437-17.313,11.155c-3.029,12.29-7.593,24.13-13.562,35.192
			c-3.766,6.979-1.449,15.685,5.289,19.867l5.625,3.492c2.398,1.487,5.142,2.256,7.912,2.256c1.285,0,2.576-0.166,3.842-0.5
			c3.992-1.059,7.371-3.715,9.342-7.347c7.603-14.011,13.388-29.016,17.193-44.598c0.979-4.005,0.266-8.234-1.971-11.696
			C353.76,217.753,350.198,215.363,346.147,214.607z"/>
        <path fill="#fff" d="M337.997,170.857h6.727c0.006,0,0.015,0,0.021,0c8.287,0,15-6.716,15-15c0-1.219-0.144-2.404-0.418-3.539
			c-5.584-29.839-18.644-58.241-37.802-82.188C292.52,33.873,251.326,9.826,205.527,2.416C195.619,0.813,185.521,0,175.512,0
			c-25.752,0-51.314,5.383-74.814,15.669L89.012,3.982c-2.414-2.413-5.91-3.39-9.225-2.576c-3.313,0.813-5.961,3.299-6.982,6.555
			L48.614,85.122c-1.086,3.466-0.158,7.248,2.41,9.816s6.35,3.496,9.816,2.41L138,73.157c3.256-1.02,5.74-3.668,6.555-6.981
			s-0.162-6.811-2.576-9.224l-13.012-13.013c15.02-4.963,30.656-7.474,46.684-7.474c45.797,0,88.547,20.605,117.287,56.532
			c15.31,19.135,25.793,41.84,30.322,65.661C324.606,165.736,330.793,170.857,337.997,170.857z"/>
	</g>
</g>
    <g>
</g>
    <g>
</g>
    <g>
</g>
    <g>
</g>
    <g>
</g>
    <g>
</g>
    <g>
</g>
    <g>
</g>
    <g>
</g>
    <g>
</g>
    <g>
</g>
    <g>
</g>
    <g>
</g>
    <g>
</g>
    <g>
</g>
</svg>
